<?xml version="1.0" standalone="no"?>
<!DOCTYPE svg PUBLIC "-//W3C//DTD SVG 20010904//EN"
 "http://www.w3.org/TR/2001/REC-SVG-20010904/DTD/svg10.dtd">
<svg version="1.0" xmlns="http://www.w3.org/2000/svg"
 width="260.000000pt" height="260.000000pt" viewBox="0 0 260.000000 260.000000"
 preserveAspectRatio="xMidYMid meet">
<metadata>
Created by potrace 1.11, written by Peter Selinger 2001-2013
</metadata>
<g transform="translate(0.000000,260.000000) scale(0.100000,-0.100000)"
fill="#000000" stroke="none">
<path d="M1189 2416 c-2 -2 -27 -7 -54 -10 -73 -8 -219 -52 -305 -92 -224
-105 -423 -299 -533 -519 -32 -64 -83 -210 -92 -261 -21 -122 -23 -160 -20
-274 5 -142 8 -162 41 -279 82 -282 274 -524 529 -666 106 -60 232 -106 330
-122 17 -3 50 -9 75 -13 47 -10 270 -6 330 5 242 43 448 152 620 327 134 137
255 352 285 511 3 10 6 26 9 35 25 81 30 309 10 420 -30 167 -100 341 -181
452 -64 87 -79 105 -134 160 -145 145 -369 268 -554 304 -16 4 -41 9 -55 12
-30 7 -295 16 -301 10z"/>
</g>
</svg>
